HIERARCHY
ROOT Hips
{
	OFFSET 0.00000 0.00000 0.00000
	CHANNELS 6 Xposition Yposition Zposition Yrotation Zrotation Xrotation 
	JOINT Lumbar
	{
		OFFSET 0 0 0
		CHANNELS 3 Zrotation Xrotation Yrotation
		JOINT Neck
		{
			OFFSET 0.00 0.2701 0.00
			CHANNELS 3 Zrotation Xrotation Yrotation
			End Site
			{
				OFFSET 0.00 0.1379 0.00
			}
		}
		JOINT RightShoulder
		{
			OFFSET 0.0119 0.2289 0.1181
			CHANNELS 3 Zrotation Xrotation Yrotation
			JOINT RightElbow
			{
				OFFSET 0.00 -0.1475 0.00
				CHANNELS 2 Zrotation Yrotation
				JOINT RightWrist
				{
					OFFSET 0.00 -0.1605 0.00
					CHANNELS 2 Zrotation Xrotation
					End Site
					{
						OFFSET 0.0040 -0.1068 0.0006
					}
				}
			}
		}
		JOINT LeftShoulder
		{
			OFFSET 0.0119 0.2289 -0.1181
			CHANNELS 3 Zrotation Xrotation Yrotation
			JOINT LeftElbow
			{
				OFFSET 0.00 -0.1475 0.00
				CHANNELS 2 Zrotation Yrotation
				JOINT LeftWrist
				{
					OFFSET 0.00 -0.1605 0.00
					CHANNELS 2 Zrotation Xrotation
					End Site
					{
						OFFSET 0.0040 -0.1068 -0.0006
					}
				}
			}
		}
	}
	JOINT RightHip
	{
		OFFSET 0.0316 -0.0424 0.0458
		CHANNELS 3 Zrotation Xrotation Yrotation
		JOINT RightKnee
		{
			OFFSET 0.00 -0.2438 0.00
			CHANNELS 1 Zrotation
			JOINT RightAnkle
			{
				OFFSET 0.00 -0.2449 0.00
				CHANNELS 3 Zrotation Xrotation Yrotation
				End Site
				{
					OFFSET 0.1237 -0.0542 0.0051
				}
			}
		}
	}
	JOINT LeftHip
	{
		OFFSET 0.0316 -0.0424 -0.0458
		CHANNELS 3 Zrotation Xrotation Yrotation
		JOINT LeftKnee
		{
			OFFSET 0.00 -0.2438 0.00
			CHANNELS 1 Zrotation
			JOINT LeftAnkle
			{
				OFFSET 0.00 -0.2449 0.00
				CHANNELS 3 Zrotation Xrotation Yrotation
				End Site
				{
					OFFSET 0.1237 -0.0542 -0.0051
				}
			}
		}
	}
}
MOTION
Frames: 33
Frame Time: 0.02
0.0002 0.00018 -8e-05 177.95419 -42.51511 -1.31433 55.5838 0.70388 -0.20006 -6.83267 -1.8447 -0.09045 135.89539 -79.06275 -70.19692 9.38418 103.34474 -4.59407 -8.27363 145.0477 75.792 90.06057 7.56978 -69.93745 2.40675 10.53371 48.4023 1.12411 -11.73628 -19.99522 -6.67315 -4.88954 -3.22407 52.89597 1.02722 2.29017 -24.21479 -8.61388 5.11285 3.44753
-5e-05 0.00013 -1e-05 177.8885 -42.58315 -1.24312 55.58968 0.67696 -0.16347 -6.81165 -1.81685 -0.08983 136.07589 -79.02638 -69.98869 9.36399 103.26909 -4.57352 -8.26657 145.52661 75.78108 90.04269 7.58145 -69.82963 2.55323 10.47529 48.48399 1.08694 -11.47353 -19.95809 -6.74834 -4.90404 -3.23724 52.92644 1.03574 2.66467 -24.21172 -8.57568 5.0864 3.43256
-0.0003 8e-05 7e-05 177.82292 -42.65103 -1.17208 55.59554 0.65013 -0.12695 -6.79068 -1.78908 -0.08921 136.25591 -78.9901 -69.78122 9.34384 103.18762 -4.55207 -8.25955 146.00441 75.77019 90.02488 7.59308 -69.72191 2.69931 10.41698 48.56546 1.04978 -11.21179 -19.92109 -6.82329 -4.91846 -3.25035 52.95679 1.04424 3.03827 -24.20866 -8.53756 5.06002 3.41762
-0.00056 3e-05 0.00015 177.75742 -42.71887 -1.10108 55.6014 0.6233 -0.09046 -6.76972 -1.76132 -0.08859 136.43586 -78.95384 -69.57367 9.32371 103.11103 -4.5314 -8.25251 146.48194 75.7593 90.00706 7.60472 -69.61438 2.84535 10.35872 48.64691 1.01271 -10.94991 -19.88407 -6.89824 -4.93291 -3.26348 52.98717 1.05275 3.41166 -24.20559 -8.49947 5.03365 3.40269
-0.00081 -1e-05 0.00022 177.69187 -42.78687 -1.02993 55.60728 0.59639 -0.05392 -6.7487 -1.73348 -0.08796 136.61628 -78.91752 -69.36525 9.30355 103.04306 -4.51207 -8.24544 146.96037 75.74836 89.98918 7.61641 -69.50684 2.99176 10.30039 48.72857 0.97568 -10.68689 -19.84691 -6.97343 -4.94746 -3.27668 53.01768 1.06126 3.78582 -24.20251 -8.46131 5.00722 3.38773
-0.00106 -6e-05 0.0003 177.62621 -42.85449 -0.95913 55.6131 0.56972 -0.01746 -6.72785 -1.70584 -0.08735 136.79548 -78.88134 -69.15976 9.28342 102.93357 -4.48624 -8.23853 147.43676 75.73759 89.97151 7.62791 -69.39878 3.13711 10.24215 48.80962 0.93826 -10.42782 -19.81024 -7.04787 -4.96162 -3.28961 53.04769 1.06974 4.15824 -24.19949 -8.42328 4.98092 3.37285
-0.00132 -0.00011 0.00037 177.56082 -42.92278 -0.88771 55.61903 0.5426 0.01914 -6.7067 -1.67784 -0.08672 136.97685 -78.8449 -68.94877 9.26325 102.90621 -4.47328 -8.23129 147.9169 75.7265 89.95344 7.63979 -69.29185 3.28447 10.18375 48.89182 0.90164 -10.16125 -19.77264 -7.12373 -4.97654 -3.30307 53.07868 1.07829 4.53377 -24.19635 -8.38503 4.95439 3.35782
-0.00157 -0.00016 0.00045 177.49524 -42.99047 -0.81685 55.62487 0.5159 0.05559 -6.6858 -1.65017 -0.0861 137.15636 -78.80869 -68.74254 9.24313 102.80592 -4.44889 -8.22437 148.3933 75.7157 89.93573 7.65131 -69.18395 3.42991 10.12555 48.97295 0.86433 -9.90129 -19.73588 -7.19831 -4.99078 -3.31605 53.10877 1.08675 4.90638 -24.19332 -8.34699 4.92808 3.34293
-0.00183 -0.00021 0.00053 177.42916 -43.05741 -0.74667 55.63054 0.48969 0.09199 -6.66527 -1.62289 -0.0855 137.33315 -78.77278 -68.54331 9.22299 102.60421 -4.40858 -8.2178 148.86652 75.70526 89.91847 7.66241 -69.07447 3.57334 10.06736 49.05287 0.82598 -9.65055 -19.70021 -7.27121 -5.00407 -3.32837 53.13777 1.0952 5.27585 -24.1904 -8.30917 4.90202 3.32818
-0.00207 -0.00025 0.00061 177.36516 -43.12863 -0.67257 55.63702 0.46057 0.12905 -6.64283 -1.59334 -0.08482 137.52426 -78.73521 -68.30736 9.2027 102.94904 -4.45401 -8.2091 149.36224 75.69275 89.89864 7.67598 -68.97287 3.72934 10.00843 49.14002 0.793 -9.35022 -19.65846 -7.35343 -5.02247 -3.34426 53.17306 1.10403 5.6647 -24.1868 -8.26998 4.87445 3.31255
-0.00234 -0.0003 0.00068 177.29729 -43.19081 -0.60673 55.64188 0.43764 0.16447 -6.62429 -1.56857 -0.0843 137.68598 -78.70112 -68.14659 9.18291 102.16507 -4.32239 -8.20494 149.80771 75.6846 89.88426 7.68431 -68.85549 3.8582 9.95149 49.21174 0.74907 -9.15227 -19.6294 -7.41621 -5.03033 -3.35278 53.19504 1.11183 6.01174 -24.18467 -8.23372 4.8501 3.2988
-0.00272 -0.00035 0.00072 177.21421 -43.22813 -0.5638 55.64166 0.43154 0.19743 -6.61747 -1.55721 -0.08421 137.75945 -78.67674 -68.21342 9.16291 98.04968 -3.66786 -8.21278 150.13666 75.68879 89.88473 7.67815 -68.68729 3.91677 9.89635 49.24197 0.67145 -9.25735 -19.63664 -7.42314 -5.00707 -3.33954 53.18038 1.11872 6.25094 -24.18632 -8.20518 4.83428 3.29008
-0.00313 -0.0004 0.00075 177.12809 -43.2564 -0.52911 55.63992 0.43174 0.2284 -6.61437 -1.55071 -0.08429 137.80472 -78.65587 -68.35202 9.14363 92.84318 -2.84221 -8.22513 150.41093 75.69734 89.89068 7.66666 -68.50459 3.94717 9.84379 49.25651 0.58339 -9.46172 -19.65636 -7.41094 -4.97361 -3.31914 53.15234 1.12427 6.44705 -24.18948 -8.17963 4.82172 3.28326
-0.00352 -0.00045 0.00079 177.04638 -43.28886 -0.49049 55.63927 0.42913 0.2589 -6.60886 -1.54162 -0.08429 137.86799 -78.6332 -68.44361 9.12513 88.28982 -2.1193 -8.23587 150.69662 75.70354 89.89423 7.65776 -68.33351 3.98794 9.79256 49.27768 0.50258 -9.60554 -19.66938 -7.40921 -4.94633 -3.30305 53.1305 1.12916 6.65815 -24.19211 -8.15295 4.80787 3.27567
-0.0039 -0.0005 0.00082 176.95191 -43.32098 -0.45265 55.63692 0.42612 0.29503 -6.60637 -1.53359 -0.0843 137.90973 -78.61119 -68.59525 9.10225 83.07404 -1.29139 -8.24529 151.04002 75.71103 89.89748 7.64847 -68.14136 4.03957 9.7312 49.301 0.41156 -9.81238 -19.68668 -7.40022 -4.91268 -3.28263 53.10822 1.13925 6.88784 -24.19412 -8.12538 4.79328 3.26774
-0.00433 -0.00056 0.00086 176.88324 -43.35166 -0.41517 55.63778 0.42567 0.31918 -6.59853 -1.52519 -0.08434 137.9891 -78.58888 -68.63991 9.08829 78.97466 -0.64066 -8.25786 151.24883 75.71724 89.90254 7.6383 -67.98942 4.06107 9.691 49.31601 0.33886 -9.91436 -19.69813 -7.40145 -4.88963 -3.26936 53.08356 1.13838 7.06952 -24.19775 -8.1003 4.78093 3.26089
-0.00488 -0.00061 0.00093 176.88722 -43.38049 -0.37655 55.64775 0.42891 0.30907 -6.57422 -1.50913 -0.08441 138.18359 -78.56295 -68.36265 9.10208 78.27081 -0.52959 -8.28325 151.10702 75.71581 89.91129 7.63046 -67.95435 4.01304 9.71273 49.31296 0.32365 -9.67695 -19.68931 -7.43871 -4.90065 -3.27921 53.05669 1.10593 7.12089 -24.20573 -8.08212 4.7747 3.25712
-0.00547 -0.00067 0.00102 176.91717 -43.40821 -0.33808 55.66102 0.43494 0.28736 -6.54443 -1.49383 -0.08452 138.41581 -78.53707 -67.97739 9.12427 78.72032 -0.60084 -8.31041 150.82712 75.71376 89.92105 7.62111 -67.96002 3.93401 9.75442 49.30187 0.32655 -9.33492 -19.67434 -7.48637 -4.92229 -3.29624 53.02769 1.06276 7.12661 -24.21524 -8.06623 4.77051 3.25428
-0.00605 -0.00073 0.0011 176.9348 -43.4365 -0.29955 55.67284 0.44083 0.27196 -6.51784 -1.48134 -0.08463 138.62831 -78.5123 -67.64686 9.14035 78.61166 -0.58348 -8.33369 150.6094 75.71364 89.93107 7.61034 -67.94523 3.86521 9.7849 49.29379 0.31819 -9.05805 -19.66288 -7.52715 -4.93751 -3.30891 52.99895 1.02565 7.15918 -24.22386 -8.04878 4.76489 3.25062
-0.00661 -0.00079 0.00117 176.95449 -43.46418 -0.26106 55.68437 0.44188 0.25178 -6.48892 -1.45448 -0.08465 138.85196 -78.48241 -67.29307 9.16587 78.60701 -0.58583 -8.37122 150.40498 75.7056 89.94072 7.60886 -67.93723 3.81332 9.82648 49.28798 0.32184 -8.71196 -19.64889 -7.57618 -4.95893 -3.32584 52.97274 0.98369 7.1661 -24.23332 -8.03355 4.76141 3.24862
-0.00721 -0.00085 0.00127 176.97612 -43.49298 -0.22269 55.69733 0.45393 0.23924 -6.46282 -1.45923 -0.08488 139.06015 -78.46374 -66.96354 9.17408 78.67573 -0.59092 -8.37803 150.12474 75.71522 89.94818 7.58701 -67.92612 3.7172 9.84716 49.27564 0.30544 -8.48179 -19.63846 -7.61097 -4.97032 -3.33586 52.94094 0.94905 7.21413 -24.24142 -8.01432 4.75403 3.24346
-0.00791 -0.00092 0.00143 176.99691 -43.52502 -0.18208 55.71327 0.49264 0.24729 -6.45198 -1.53761 -0.08563 139.22671 -78.47223 -66.70921 9.12896 78.65545 -0.57329 -8.3107 149.75887 75.7685 89.96076 7.5172 -67.88712 3.52205 9.82598 49.24784 0.22467 -8.61524 -19.64014 -7.60211 -4.94944 -3.32369 52.89386 0.93947 7.40517 -24.24525 -7.9822 4.73419 3.22844
-0.00866 -0.00098 0.00162 177.01907 -43.55817 -0.14199 55.73054 0.54279 0.2642 -6.44318 -1.65027 -0.0866 139.37244 -78.49358 -66.48784 9.06653 78.67719 -0.54932 -8.20971 149.27215 75.84486 89.95835 7.42667 -67.84578 3.27955 9.77877 49.21363 0.12397 -8.86532 -19.64551 -7.579 -4.91851 -3.3046 52.84125 0.93733 7.63635 -24.2477 -7.94614 4.71046 3.21033
-0.00938 -0.00104 0.0018 177.04005 -43.59104 -0.10333 55.74733 0.58971 0.27906 -6.42916 -1.75601 -0.08749 139.52384 -78.5104 -66.26077 9.01466 78.69042 -0.52104 -8.11759 148.82363 75.9086 89.9687 7.33891 -67.8112 3.05019 9.73042 49.18216 0.03548 -9.04943 -19.64845 -7.56368 -4.89351 -3.28958 52.79158 0.93022 7.83687 -24.25085 -7.91278 4.68937 3.19431
-0.0101 -0.00111 0.00198 177.06288 -43.62333 -0.05774 55.76381 0.62863 0.28457 -6.43232 -1.82516 -0.0883 139.70149 -78.51809 -65.9836 8.95281 78.69544 -0.53353 -8.05512 148.57536 75.96354 89.99743 7.27425 -67.75237 2.85989 9.73928 49.15149 -0.06557 -9.2838 -19.65386 -7.54318 -4.86308 -3.27088 52.74043 0.92902 8.0866 -24.25367 -7.87589 4.66504 3.17566
-0.01084 -0.00117 0.00217 177.08364 -43.6566 -0.0266 55.78111 0.68664 0.31256 -6.40118 -1.97873 -0.08934 139.80783 -78.55236 -65.829 8.90617 78.71648 -0.45204 -7.91982 147.71441 76.06457 89.92981 7.16275 -67.74496 2.57141 9.62034 49.11728 -0.14561 -9.44365 -19.65571 -7.52994 -4.84149 -3.25813 52.69057 0.91793 8.24595 -24.25695 -7.84509 4.64608 3.16146
-0.01167 -0.00124 0.00242 177.08379 -43.69663 -0.03604 55.8008 0.79637 0.39408 -6.26714 -2.35613 -0.09099 139.8344 -78.62036 -65.92874 8.91687 78.7483 -0.15596 -7.61677 146.72626 76.08188 90.05606 6.88005 -67.87338 2.07368 9.17703 49.07926 -0.16125 -9.36021 -19.64268 -7.54029 -4.84633 -3.26328 52.65011 0.87331 8.12857 -24.26095 -7.83462 4.64653 3.16272
-0.01253 -0.00131 0.0027 177.08502 -43.73668 -0.05974 55.82101 0.92444 0.49911 -6.10008 -2.81716 -0.0929 139.7802 -78.72293 -66.16566 8.94113 78.80269 0.24372 -7.23641 144.90351 76.17271 89.99404 6.56384 -68.06184 1.46897 8.60432 49.03737 -0.15555 -9.20006 -19.62753 -7.55839 -4.86046 -3.27466 52.61028 0.81927 7.92193 -24.26566 -7.82996 4.65183 3.16811
-0.01337 -0.00138 0.00297 177.09439 -43.77408 -0.07653 55.84086 1.0431 0.59767 -5.95305 -3.24087 -0.09464 139.6748 -78.83175 -66.38988 8.95212 78.84445 0.625 -6.87557 142.37589 76.37776 89.72739 6.28848 -68.21793 0.88113 8.07294 48.99412 -0.16049 -9.08129 -19.61517 -7.57286 -4.87055 -3.28331 52.56732 0.7726 7.7682 -24.27057 -7.82095 4.65255 3.17005
-0.01421 -0.00144 0.00323 177.06487 -43.82323 -0.0956 55.86191 1.16724 0.67893 -5.78442 -3.66417 -0.0965 139.89299 -78.84231 -66.40462 8.99342 78.86037 0.8843 -6.58145 144.15929 76.00309 90.71248 5.88722 -68.36604 0.42799 7.60388 48.96283 -0.16156 -8.93853 -19.5921 -7.58728 -4.87945 -3.29129 52.53639 0.71349 7.56524 -24.27307 -7.8189 4.66323 3.17858
-0.01507 -0.00152 0.0035 177.11975 -43.84718 -0.11276 55.8798 1.28348 0.80143 -5.65351 -4.10612 -0.09832 139.47705 -79.07309 -66.88907 8.9739 78.98249 1.42343 -6.12797 137.09525 76.79946 89.01185 5.76184 -68.58191 -0.33342 6.98789 48.90701 -0.16611 -8.82662 -19.59471 -7.60383 -4.89324 -3.30224 52.48035 0.67752 7.4412 -24.28101 -7.80391 4.65426 3.17436
-0.01602 -0.00165 0.00381 177.38083 -43.80757 -0.1257 55.89518 1.37904 1.03413 -5.62971 -4.59288 -0.09852 136.81133 -79.84138 -68.62344 8.79349 78.97369 2.69873 -5.27436 102.92278 81.27559 80.26859 6.22511 -68.64288 -1.89319 5.88131 48.77438 -0.17913 -8.81152 -19.63602 -7.62423 -4.91751 -3.31974 52.35708 0.71147 7.57293 -24.30159 -7.75082 4.59086 3.13425
-0.01699 -0.00181 0.00412 177.73205 -43.74143 -0.13531 55.90602 1.46483 1.307 -5.64593 -5.09273 -0.09891 133.59671 -80.84301 -70.82572 8.55006 79.1427 4.25318 -4.25922 60.37026 86.84396 68.79542 7.00169 -68.82274 -3.76297 4.6512 48.6194 -0.19764 -8.82985 -19.70991 -7.64649 -4.94644 -3.33998 52.20811 0.76825 7.78389 -24.328 -7.68472 4.50736 3.08111
